<svg id="svg" version="1.1" xmlns="http://www.w3.org/2000/svg" xmlns:xlink="http://www.w3.org/1999/xlink" width="400" height="400" viewBox="0, 0, 400,400"><g id="svgg"><path id="path0" d="M201.418 63.477 C 199.314 64.050,198.678 64.492,195.962 67.263 C 194.271 68.988,192.767 70.400,192.619 70.400 C 192.346 70.400,187.901 72.544,186.800 73.207 C 186.470 73.406,185.030 74.126,183.600 74.807 C 182.170 75.489,180.730 76.216,180.400 76.423 C 180.070 76.631,179.350 76.980,178.800 77.199 C 178.250 77.419,177.530 77.774,177.200 77.989 C 176.870 78.205,175.970 78.657,175.200 78.995 C 174.430 79.333,172.612 80.282,171.159 81.105 C 169.707 81.927,167.946 82.923,167.245 83.318 C 166.075 83.977,159.797 88.189,157.036 90.166 C 156.396 90.625,155.226 91.584,154.436 92.298 C 153.646 93.012,152.888 93.597,152.751 93.598 C 152.614 93.599,151.358 94.514,149.960 95.632 C 143.657 100.670,140.803 107.622,143.290 111.877 C 144.299 113.604,147.139 116.373,147.916 116.389 C 148.200 116.395,149.157 116.770,150.044 117.222 C 153.980 119.230,166.418 117.180,169.599 113.999 C 170.510 113.088,174.010 110.965,177.600 109.147 C 180.202 107.828,181.082 107.309,183.484 105.674 C 184.939 104.683,186.488 104.542,187.150 105.340 C 187.613 105.898,187.611 105.936,186.200 121.400 C 185.498 129.098,184.549 142.853,183.922 154.400 C 183.352 164.900,183.341 229.296,183.907 238.800 C 184.618 250.727,185.549 262.997,186.183 268.800 C 186.508 271.770,186.884 275.910,187.019 278.000 C 187.154 280.090,187.511 283.060,187.813 284.600 C 188.114 286.140,188.477 289.110,188.618 291.200 C 188.760 293.290,189.035 295.623,189.229 296.384 C 189.496 297.431,189.428 298.003,188.951 298.730 L 188.321 299.693 182.460 299.416 C 174.536 299.043,169.328 298.497,168.274 297.931 C 167.514 297.522,164.234 296.830,159.653 296.113 C 155.974 295.536,151.176 298.591,150.554 301.907 C 150.130 304.167,150.638 310.471,151.351 311.800 C 151.705 312.460,151.996 313.126,151.998 313.280 C 152.011 314.829,157.583 320.480,160.084 321.480 C 160.918 321.814,161.600 322.219,161.600 322.380 C 161.600 322.541,162.635 322.901,163.900 323.181 C 165.165 323.460,166.380 323.828,166.600 323.997 C 166.820 324.166,168.620 324.427,170.600 324.576 C 172.580 324.725,175.100 325.096,176.200 325.402 C 177.300 325.707,180.391 326.145,183.070 326.376 C 185.748 326.607,188.898 327.021,190.070 327.298 C 192.991 327.986,217.526 328.003,219.800 327.318 C 220.680 327.053,223.380 326.642,225.800 326.404 C 228.220 326.167,230.809 325.777,231.554 325.538 C 232.298 325.298,234.548 324.863,236.554 324.570 C 242.934 323.639,247.314 322.420,249.844 320.872 C 258.971 315.285,261.556 302.491,254.442 298.112 C 252.622 296.992,246.373 296.822,243.556 297.815 C 241.983 298.371,234.517 299.104,221.800 299.952 C 214.514 300.438,214.297 300.261,214.769 294.200 C 215.086 290.137,214.596 276.642,214.000 273.009 C 213.784 271.694,213.421 265.664,213.192 259.609 C 212.963 253.554,212.559 245.810,212.293 242.400 C 211.641 234.021,211.649 183.228,212.304 173.200 C 212.570 169.130,212.968 159.410,213.189 151.600 C 213.410 143.790,213.766 135.510,213.981 133.200 C 214.196 130.890,214.563 124.860,214.796 119.800 C 215.030 114.740,215.383 109.430,215.581 108.000 C 215.780 106.570,216.152 101.710,216.407 97.200 C 216.663 92.690,217.041 88.190,217.246 87.200 C 219.045 78.523,217.837 68.321,214.671 65.447 C 211.976 63.001,206.275 62.154,201.418 63.477 " stroke="none" fill="#edf5fc" fill-rule="evenodd"></path><path id="path1" d="M321.755 6.379 C 321.656 6.478,319.438 6.512,316.826 6.454 C 313.797 6.388,311.983 6.504,311.815 6.775 C 311.479 7.319,308.928 7.331,308.594 6.790 C 308.437 6.536,307.553 6.485,306.270 6.656 C 305.132 6.807,303.930 6.929,303.600 6.926 C 303.270 6.923,302.904 7.066,302.786 7.244 C 302.669 7.422,257.234 7.620,201.820 7.684 C 122.002 7.776,101.032 7.903,100.901 8.297 C 100.782 8.654,100.525 8.681,99.986 8.393 C 99.196 7.969,95.215 8.096,94.450 8.569 C 94.203 8.722,93.997 8.702,93.994 8.524 C 93.991 8.346,93.850 8.417,93.681 8.683 C 93.450 9.046,88.604 9.195,74.072 9.283 C 57.437 9.384,54.718 9.483,54.391 10.000 C 54.183 10.330,54.009 10.429,54.006 10.220 C 54.003 10.011,53.784 10.056,53.520 10.320 C 53.229 10.611,51.819 10.800,49.946 10.800 C 46.884 10.800,44.858 11.260,44.358 12.068 C 44.216 12.297,43.239 12.519,42.187 12.561 C 40.709 12.620,40.139 12.838,39.688 13.519 C 39.238 14.196,38.711 14.400,37.413 14.400 C 36.258 14.400,35.505 14.642,35.033 15.164 C 34.652 15.584,33.859 16.049,33.271 16.196 C 32.682 16.344,31.878 16.810,31.484 17.232 C 31.091 17.655,30.506 18.000,30.184 18.000 C 29.863 18.000,29.600 18.258,29.600 18.573 C 29.600 18.888,29.234 19.262,28.787 19.404 C 27.869 19.696,25.766 21.649,25.902 22.086 C 25.950 22.243,25.723 22.268,25.395 22.143 C 25.068 22.017,24.800 22.089,24.800 22.303 C 24.800 22.517,24.273 23.295,23.630 24.032 C 22.986 24.769,22.539 25.501,22.635 25.657 C 22.732 25.814,22.462 26.054,22.034 26.189 C 21.594 26.329,21.142 26.951,20.995 27.621 C 20.852 28.273,20.390 28.991,19.967 29.217 C 19.412 29.514,19.200 30.060,19.200 31.187 C 19.200 32.395,19.020 32.803,18.400 33.000 C 17.764 33.202,17.600 33.605,17.600 34.965 C 17.600 36.168,17.362 36.891,16.800 37.400 C 16.131 38.005,16.000 38.632,16.000 41.215 C 16.000 44.000,15.918 44.328,15.176 44.522 L 14.352 44.738 14.431 77.558 C 14.475 95.610,14.621 110.310,14.755 110.227 C 14.890 110.143,14.958 111.182,14.907 112.537 C 14.847 114.114,14.932 114.717,15.142 114.215 C 15.908 112.383,15.982 118.658,16.045 190.229 C 16.113 268.060,16.122 268.800,17.036 268.800 C 17.385 268.800,17.560 269.175,17.508 269.809 C 17.451 270.488,17.242 270.748,16.868 270.605 C 16.436 270.439,16.377 270.638,16.606 271.495 C 16.768 272.103,16.905 272.870,16.911 273.200 C 16.916 273.530,17.068 273.897,17.248 274.016 C 17.428 274.135,17.592 288.506,17.613 305.953 C 17.650 336.554,17.775 340.033,18.818 339.389 C 18.984 339.287,19.145 341.608,19.176 344.547 C 19.241 350.599,19.409 351.926,20.225 352.828 C 20.588 353.229,20.801 354.337,20.802 355.831 C 20.804 357.150,21.070 358.708,21.402 359.346 C 22.130 360.740,22.144 360.920,21.500 360.594 C 21.225 360.455,21.326 360.607,21.725 360.933 C 22.191 361.313,22.578 362.430,22.808 364.055 C 23.015 365.523,23.425 366.775,23.783 367.037 C 24.122 367.285,24.400 367.859,24.400 368.311 C 24.400 369.524,24.817 370.400,25.393 370.400 C 25.672 370.400,26.004 370.918,26.130 371.552 C 26.257 372.185,26.685 373.027,27.080 373.423 C 27.476 373.819,27.823 374.291,27.850 374.471 C 27.877 374.652,27.923 374.991,27.950 375.224 C 27.977 375.457,28.180 375.536,28.401 375.400 C 28.621 375.263,28.977 375.613,29.191 376.176 C 29.405 376.739,29.769 377.200,29.999 377.200 C 30.229 377.200,30.615 377.635,30.857 378.166 C 31.099 378.697,31.636 379.221,32.049 379.329 C 32.462 379.437,32.800 379.812,32.800 380.163 C 32.800 380.533,33.135 380.800,33.600 380.800 C 34.124 380.800,34.400 381.067,34.400 381.572 C 34.400 382.068,34.722 382.390,35.300 382.472 C 35.795 382.542,36.200 382.870,36.200 383.200 C 36.200 383.802,36.348 383.857,38.200 383.950 C 38.902 383.985,39.200 384.229,39.200 384.768 C 39.200 385.297,39.575 385.619,40.400 385.800 C 41.060 385.945,41.600 386.229,41.600 386.432 C 41.600 386.634,41.791 386.800,42.024 386.800 C 42.257 386.800,42.333 386.575,42.194 386.300 C 42.055 386.025,42.206 386.125,42.531 386.523 C 43.048 387.156,44.082 387.476,45.924 387.572 C 46.212 387.588,46.348 387.761,46.226 387.958 C 45.918 388.456,47.044 388.886,49.400 389.171 C 50.633 389.320,51.364 389.596,51.306 389.889 C 51.123 390.813,54.494 390.844,131.200 390.617 C 173.770 390.490,213.297 390.411,219.038 390.439 C 229.435 390.490,232.228 390.293,231.762 389.538 C 231.627 389.320,231.919 389.379,232.410 389.670 C 233.105 390.082,233.344 390.091,233.482 389.709 C 233.621 389.328,240.015 389.217,262.130 389.212 C 277.789 389.208,297.260 389.097,305.400 388.966 C 313.540 388.836,320.785 388.732,321.500 388.736 C 322.215 388.740,322.800 388.570,322.800 388.357 C 322.800 388.124,323.114 388.140,323.597 388.399 C 324.538 388.902,327.179 388.805,327.073 388.270 C 327.033 388.067,327.250 387.809,327.556 387.698 C 327.919 387.566,328.006 387.667,327.805 387.991 C 327.492 388.498,330.217 388.408,331.066 387.883 C 331.276 387.753,336.297 387.615,342.224 387.576 C 353.194 387.504,355.739 387.349,355.386 386.777 C 355.071 386.267,355.930 385.920,357.506 385.920 C 359.414 385.920,360.800 385.369,360.800 384.610 C 360.800 384.165,361.233 384.000,362.400 384.000 C 363.280 384.000,364.000 383.826,364.000 383.613 C 364.000 383.399,364.301 383.341,364.669 383.482 C 365.150 383.666,365.275 383.573,365.113 383.151 C 364.962 382.756,365.168 382.543,365.744 382.500 C 366.215 382.465,366.899 382.068,367.264 381.618 C 367.629 381.168,368.214 380.800,368.564 380.800 C 368.914 380.800,369.200 380.620,369.200 380.400 C 369.200 380.180,369.425 380.045,369.700 380.100 C 369.975 380.155,370.155 379.975,370.100 379.700 C 370.045 379.425,370.174 379.200,370.386 379.200 C 370.599 379.200,371.325 378.660,372.000 378.000 C 372.675 377.340,373.412 376.800,373.637 376.800 C 373.863 376.800,373.949 376.640,373.828 376.445 C 373.593 376.065,374.342 375.290,375.000 375.234 C 375.220 375.215,375.400 375.035,375.400 374.834 C 375.400 374.632,375.773 374.137,376.228 373.734 C 376.684 373.330,377.398 372.415,377.815 371.700 C 378.231 370.985,378.714 370.400,378.886 370.400 C 379.059 370.400,379.200 370.040,379.200 369.600 C 379.200 369.160,379.410 368.800,379.667 368.800 C 379.923 368.800,380.022 368.689,379.886 368.552 C 379.750 368.416,379.900 368.043,380.219 367.724 C 380.539 367.404,380.800 366.805,380.800 366.391 C 380.800 365.978,381.074 365.486,381.410 365.299 C 381.770 365.097,382.118 364.122,382.261 362.912 C 382.444 361.373,382.689 360.818,383.252 360.671 C 383.879 360.506,384.000 360.082,384.000 358.037 C 384.000 355.867,384.088 355.600,384.800 355.600 C 385.373 355.600,385.614 355.317,385.650 354.600 C 385.678 354.050,385.745 353.060,385.800 352.400 C 385.855 351.740,385.923 350.570,385.950 349.800 C 385.980 348.964,386.188 348.440,386.466 348.500 C 387.512 348.724,387.628 344.210,387.518 307.800 C 387.317 241.274,387.578 164.800,388.006 164.800 C 388.223 164.800,388.372 163.855,388.337 162.700 L 388.274 160.600 388.000 162.600 L 387.726 164.600 387.663 162.687 C 387.618 161.322,387.770 160.710,388.194 160.547 C 388.927 160.266,388.921 160.867,388.966 90.917 C 388.998 40.759,388.968 38.411,388.278 37.906 C 387.746 37.518,387.551 36.829,387.539 35.294 C 387.528 33.873,387.282 32.904,386.764 32.246 C 386.347 31.715,385.922 30.628,385.820 29.830 C 385.594 28.071,385.332 27.600,384.576 27.600 C 384.224 27.600,384.000 27.201,384.000 26.573 C 384.000 25.715,383.863 25.590,383.169 25.810 C 382.519 26.016,382.354 25.912,382.415 25.337 C 382.581 23.756,382.369 22.886,381.600 22.000 C 381.160 21.493,380.800 20.916,380.800 20.719 C 380.800 20.215,378.207 17.600,377.706 17.600 C 377.479 17.600,377.199 17.240,377.084 16.800 C 376.959 16.321,376.538 16.000,376.037 16.000 C 375.577 16.000,375.200 15.742,375.200 15.427 C 375.200 15.112,374.795 14.726,374.300 14.570 C 373.805 14.413,373.165 13.951,372.877 13.543 C 372.570 13.106,371.870 12.800,371.177 12.800 C 370.530 12.800,370.000 12.609,370.000 12.376 C 370.000 12.143,369.820 12.064,369.600 12.200 C 369.380 12.336,369.200 12.186,369.200 11.866 C 369.200 11.177,368.356 10.800,366.810 10.800 C 366.159 10.800,365.585 10.537,365.446 10.175 C 365.314 9.831,365.024 9.661,364.803 9.798 C 364.581 9.935,364.400 9.889,364.400 9.695 C 364.400 9.401,363.139 9.238,359.718 9.088 C 359.452 9.076,359.328 8.916,359.442 8.733 C 359.779 8.186,357.700 7.600,355.423 7.600 C 353.980 7.600,353.131 7.398,352.777 6.972 C 352.490 6.627,351.928 6.430,351.528 6.535 C 351.128 6.639,350.800 6.595,350.800 6.435 C 350.800 6.276,346.480 6.115,341.200 6.078 C 334.739 6.032,331.600 6.147,331.600 6.429 C 331.600 6.664,331.381 6.710,331.100 6.534 C 330.578 6.207,322.069 6.066,321.755 6.379 M342.800 14.811 C 355.480 16.444,366.198 24.922,362.204 30.159 C 357.783 35.956,347.914 36.281,162.000 36.756 C 44.062 37.057,45.808 37.078,43.182 35.341 C 35.114 30.001,43.083 21.246,58.800 18.182 C 60.670 17.817,62.943 17.367,63.850 17.181 C 69.992 15.922,97.449 15.202,153.400 14.830 C 220.985 14.382,339.373 14.370,342.800 14.811 M209.608 61.163 C 216.260 62.022,220.430 68.455,219.900 77.039 C 219.573 82.337,218.752 92.647,218.151 99.000 C 217.818 102.520,217.385 108.640,217.189 112.600 C 216.992 116.560,216.563 123.580,216.236 128.200 C 215.908 132.820,215.441 142.000,215.198 148.600 C 214.955 155.200,214.574 163.300,214.351 166.600 C 213.806 174.684,213.796 241.983,214.340 248.200 C 214.570 250.840,214.960 257.050,215.205 262.000 C 215.450 266.950,215.911 273.499,216.231 276.553 C 217.072 284.605,217.339 292.239,216.876 295.000 C 216.642 296.393,216.621 297.555,216.827 297.770 C 217.268 298.233,229.514 298.073,232.904 297.561 C 234.277 297.354,237.560 296.913,240.200 296.581 C 242.840 296.249,245.522 295.803,246.160 295.589 C 250.763 294.045,256.960 296.505,259.587 300.921 C 260.672 302.747,260.627 309.102,259.510 311.600 C 257.552 315.982,257.262 316.464,255.347 318.534 C 253.360 320.681,249.012 323.525,247.203 323.860 C 246.431 324.004,245.417 324.370,244.949 324.674 C 244.481 324.979,242.771 325.382,241.149 325.571 C 239.527 325.760,237.716 326.106,237.123 326.339 C 236.531 326.572,234.641 326.880,232.923 327.024 C 231.206 327.167,229.045 327.530,228.123 327.830 C 227.201 328.130,224.231 328.559,221.523 328.783 C 218.815 329.008,215.520 329.373,214.200 329.594 C 211.170 330.101,200.235 330.106,196.800 329.602 C 195.370 329.393,191.500 329.032,188.200 328.800 C 184.900 328.569,181.390 328.129,180.400 327.823 C 179.410 327.517,177.063 327.156,175.184 327.020 C 173.305 326.883,170.785 326.510,169.584 326.191 C 168.383 325.871,166.917 325.607,166.327 325.605 C 164.162 325.595,157.017 322.135,155.051 320.143 C 146.772 311.760,146.060 300.908,153.448 295.701 C 155.394 294.329,162.024 294.093,165.200 295.281 C 171.968 297.814,187.518 298.883,187.291 296.800 C 186.473 289.327,185.598 282.047,185.247 279.800 C 185.006 278.260,184.628 274.390,184.406 271.200 C 184.185 268.010,183.828 263.858,183.615 261.974 C 183.401 260.089,183.023 254.599,182.775 249.774 C 182.526 244.948,182.166 239.290,181.975 237.200 C 180.875 225.192,181.149 166.647,182.381 150.345 C 182.603 147.405,182.972 141.130,183.201 136.400 C 183.430 131.670,183.790 126.270,184.001 124.400 C 184.213 122.530,184.572 118.390,184.799 115.200 C 185.026 112.010,185.320 108.905,185.452 108.300 C 185.667 107.319,185.580 107.200,184.647 107.200 C 184.071 107.200,183.600 107.379,183.600 107.597 C 183.600 108.006,183.082 108.305,177.744 110.970 C 174.644 112.518,172.968 113.544,171.400 114.854 C 158.542 125.599,137.141 118.430,141.217 104.743 C 141.666 103.234,142.194 102.000,142.390 102.000 C 142.586 102.000,142.871 101.595,143.024 101.100 C 143.176 100.605,143.549 99.930,143.851 99.600 C 146.787 96.393,148.740 94.400,148.948 94.400 C 149.087 94.400,149.541 94.085,149.958 93.700 C 150.945 92.788,152.363 91.619,153.826 90.510 C 154.472 90.021,155.900 88.938,157.000 88.104 C 159.820 85.966,164.594 82.800,164.998 82.800 C 165.184 82.800,165.652 82.515,166.037 82.167 C 166.913 81.374,168.270 80.611,173.800 77.804 C 176.220 76.576,178.470 75.404,178.800 75.200 C 179.865 74.544,183.864 72.800,184.305 72.800 C 184.541 72.800,184.793 72.654,184.867 72.475 C 184.940 72.295,186.723 71.292,188.828 70.245 C 191.858 68.739,193.087 67.856,194.724 66.011 C 198.696 61.535,202.611 60.259,209.608 61.163 M369.432 358.126 C 374.116 362.155,364.592 373.246,353.400 376.797 C 352.520 377.076,351.613 377.451,351.384 377.631 C 351.156 377.811,350.256 378.128,349.384 378.336 C 348.513 378.544,346.720 379.008,345.400 379.368 C 333.830 382.520,330.205 382.705,270.600 383.186 C 242.220 383.416,203.070 383.792,183.600 384.022 C 116.276 384.819,76.180 385.078,71.200 384.747 C 54.076 383.610,42.261 377.812,37.427 368.172 C 33.178 359.700,36.011 358.943,52.400 364.167 C 62.040 367.240,71.362 368.992,83.400 369.993 C 93.828 370.860,169.232 370.278,293.400 368.374 C 339.176 367.671,352.717 366.022,361.258 360.107 C 365.202 357.374,367.821 356.740,369.432 358.126 " stroke="none" fill="#04b3fb" fill-rule="evenodd"></path><path id="path2" d="M303.257 6.190 C 303.558 6.491,307.578 6.555,307.870 6.264 C 308.015 6.119,306.993 6.000,305.600 6.000 C 304.207 6.000,303.152 6.085,303.257 6.190 M287.000 7.200 C 286.674 7.727,295.584 7.727,296.400 7.200 C 296.806 6.938,295.420 6.810,292.124 6.806 C 289.297 6.803,287.143 6.968,287.000 7.200 M94.705 7.883 C 95.202 7.979,95.922 7.975,96.305 7.875 C 96.687 7.775,96.280 7.696,95.400 7.701 C 94.520 7.705,94.207 7.787,94.705 7.883 M53.450 9.714 C 52.793 10.194,52.801 10.229,53.573 10.229 C 54.028 10.229,54.400 9.997,54.400 9.714 C 54.400 9.431,54.344 9.200,54.276 9.200 C 54.209 9.200,53.836 9.431,53.450 9.714 M153.400 14.830 C 97.449 15.202,69.992 15.922,63.850 17.181 C 62.943 17.367,60.670 17.817,58.800 18.182 C 43.083 21.246,35.114 30.001,43.182 35.341 C 45.808 37.078,44.062 37.057,162.000 36.756 C 347.914 36.281,357.783 35.956,362.204 30.159 C 366.198 24.922,355.480 16.444,342.800 14.811 C 339.373 14.370,220.985 14.382,153.400 14.830 M382.492 25.000 C 382.402 26.087,382.434 26.115,383.360 25.760 C 383.839 25.576,383.890 25.342,383.579 24.760 C 383.019 23.714,382.590 23.808,382.492 25.000 M14.140 50.400 C 14.140 52.270,14.209 53.035,14.293 52.100 C 14.377 51.165,14.377 49.635,14.293 48.700 C 14.209 47.765,14.140 48.530,14.140 50.400 M14.179 72.200 C 14.179 79.460,14.233 82.486,14.299 78.925 C 14.365 75.364,14.366 69.424,14.299 65.725 C 14.233 62.026,14.179 64.940,14.179 72.200 M202.558 61.199 C 199.818 61.601,197.223 63.195,194.724 66.011 C 193.087 67.856,191.858 68.739,188.828 70.245 C 186.723 71.292,184.940 72.295,184.867 72.475 C 184.793 72.654,184.541 72.800,184.305 72.800 C 183.864 72.800,179.865 74.544,178.800 75.200 C 178.470 75.404,176.220 76.576,173.800 77.804 C 168.270 80.611,166.913 81.374,166.037 82.167 C 165.652 82.515,165.184 82.800,164.998 82.800 C 164.594 82.800,159.820 85.966,157.000 88.104 C 155.900 88.938,154.472 90.021,153.826 90.510 C 152.363 91.619,150.945 92.788,149.958 93.700 C 149.541 94.085,149.087 94.400,148.948 94.400 C 148.740 94.400,146.787 96.393,143.851 99.600 C 143.549 99.930,143.176 100.605,143.024 101.100 C 142.871 101.595,142.586 102.000,142.390 102.000 C 141.949 102.000,140.389 107.133,140.431 108.443 C 140.620 114.262,148.571 120.400,155.919 120.400 C 159.572 120.400,168.659 117.145,171.400 114.854 C 172.968 113.544,174.644 112.518,177.744 110.970 C 183.082 108.305,183.600 108.006,183.600 107.597 C 183.600 107.379,184.071 107.200,184.647 107.200 C 185.580 107.200,185.667 107.319,185.452 108.300 C 185.320 108.905,185.026 112.010,184.799 115.200 C 184.572 118.390,184.213 122.530,184.001 124.400 C 183.790 126.270,183.430 131.670,183.201 136.400 C 182.972 141.130,182.603 147.405,182.381 150.345 C 181.149 166.647,180.875 225.192,181.975 237.200 C 182.166 239.290,182.526 244.948,182.775 249.774 C 183.023 254.599,183.401 260.089,183.615 261.974 C 183.828 263.858,184.185 268.010,184.406 271.200 C 184.628 274.390,185.006 278.260,185.247 279.800 C 185.598 282.047,186.473 289.327,187.291 296.800 C 187.518 298.883,171.968 297.814,165.200 295.281 C 162.024 294.093,155.394 294.329,153.448 295.701 C 146.060 300.908,146.772 311.760,155.051 320.143 C 157.017 322.135,164.162 325.595,166.327 325.605 C 166.917 325.607,168.383 325.871,169.584 326.191 C 170.785 326.510,173.305 326.883,175.184 327.020 C 177.063 327.156,179.410 327.517,180.400 327.823 C 181.390 328.129,184.900 328.569,188.200 328.800 C 191.500 329.032,195.370 329.393,196.800 329.602 C 200.235 330.106,211.170 330.101,214.200 329.594 C 215.520 329.373,218.815 329.008,221.523 328.783 C 224.231 328.559,227.201 328.130,228.123 327.830 C 229.045 327.530,231.206 327.167,232.923 327.024 C 234.641 326.880,236.531 326.572,237.123 326.339 C 237.716 326.106,239.527 325.760,241.149 325.571 C 242.771 325.382,244.481 324.979,244.949 324.674 C 245.417 324.370,246.431 324.004,247.203 323.860 C 249.012 323.525,253.360 320.681,255.347 318.534 C 257.262 316.464,257.552 315.982,259.510 311.600 C 260.627 309.102,260.672 302.747,259.587 300.921 C 256.960 296.505,250.763 294.045,246.160 295.589 C 245.522 295.803,242.840 296.249,240.200 296.581 C 237.560 296.913,234.277 297.354,232.904 297.561 C 229.514 298.073,217.268 298.233,216.827 297.770 C 216.621 297.555,216.642 296.393,216.876 295.000 C 217.339 292.239,217.072 284.605,216.231 276.553 C 215.911 273.499,215.450 266.950,215.205 262.000 C 214.960 257.050,214.570 250.840,214.340 248.200 C 213.796 241.983,213.806 174.684,214.351 166.600 C 214.574 163.300,214.955 155.200,215.198 148.600 C 215.441 142.000,215.908 132.820,216.236 128.200 C 216.563 123.580,216.992 116.560,217.189 112.600 C 217.385 108.640,217.818 102.520,218.151 99.000 C 218.752 92.647,219.573 82.337,219.900 77.039 C 220.611 65.524,214.034 59.517,202.558 61.199 M212.598 63.016 C 218.758 65.931,220.268 75.254,217.583 93.800 C 217.360 95.340,216.915 100.830,216.594 106.000 C 216.273 111.170,215.750 119.630,215.430 124.800 C 211.980 180.631,211.975 240.634,215.417 279.122 C 216.071 286.433,216.161 293.824,215.625 296.134 C 215.028 298.705,215.918 299.226,220.490 298.983 C 235.367 298.191,238.639 297.929,241.061 297.333 C 253.954 294.164,260.713 298.350,259.060 308.482 C 257.194 319.923,251.021 323.564,227.600 327.036 C 225.290 327.378,222.230 327.855,220.800 328.096 C 217.318 328.682,193.150 328.685,189.000 328.099 C 187.240 327.851,183.640 327.362,181.000 327.013 C 160.609 324.319,155.584 322.013,151.392 313.428 C 145.693 301.757,151.790 293.071,163.655 295.959 C 165.555 296.422,167.445 296.808,167.855 296.818 C 168.265 296.827,169.320 297.106,170.200 297.436 C 172.439 298.277,187.032 299.037,187.853 298.356 C 188.478 297.837,188.348 294.098,187.577 290.400 C 187.225 288.710,186.956 286.241,185.444 270.800 C 184.326 259.375,183.604 249.080,183.187 238.600 C 182.959 232.880,182.601 224.330,182.390 219.600 C 181.901 208.605,181.901 185.940,182.391 174.600 C 182.599 169.760,182.958 160.760,183.187 154.600 C 183.679 141.385,185.060 121.739,186.195 111.800 C 186.925 105.407,186.485 104.812,182.800 107.212 C 182.250 107.570,180.090 108.770,178.000 109.879 C 175.910 110.987,172.779 112.838,171.042 113.992 C 169.304 115.146,167.234 116.351,166.442 116.670 C 165.649 116.989,164.460 117.493,163.800 117.790 C 158.255 120.283,148.482 118.754,144.414 114.756 C 138.230 108.679,141.470 100.932,154.188 91.381 C 163.102 84.687,167.413 82.074,180.400 75.496 C 192.371 69.433,193.120 68.988,195.400 66.578 C 199.969 61.750,206.890 60.316,212.598 63.016 M388.934 151.600 C 388.934 153.250,389.005 153.925,389.091 153.100 C 389.178 152.275,389.178 150.925,389.091 150.100 C 389.005 149.275,388.934 149.950,388.934 151.600 M16.000 269.200 C 16.000 269.420,16.216 269.600,16.480 269.600 C 16.853 269.600,16.853 269.707,16.480 270.080 C 16.216 270.344,16.000 271.274,16.000 272.147 C 16.000 273.019,16.108 273.625,16.240 273.493 C 16.372 273.361,16.480 272.624,16.480 271.855 C 16.480 270.944,16.645 270.519,16.952 270.637 C 17.227 270.742,17.459 270.397,17.508 269.809 C 17.571 269.041,17.401 268.800,16.796 268.800 C 16.358 268.800,16.000 268.980,16.000 269.200 M20.006 357.100 C 20.003 357.595,20.180 358.000,20.400 358.000 C 20.901 358.000,20.901 357.576,20.400 356.800 C 20.086 356.315,20.011 356.372,20.006 357.100 M23.396 367.607 C 23.833 368.153,24.238 368.675,24.296 368.767 C 24.353 368.858,24.400 368.513,24.400 368.000 C 24.400 367.487,24.282 367.185,24.137 367.330 C 23.992 367.475,23.587 367.373,23.237 367.103 C 22.851 366.807,22.914 367.005,23.396 367.607 M372.014 377.974 C 371.507 378.921,371.484 379.319,371.952 379.030 C 372.305 378.812,372.855 377.200,372.577 377.200 C 372.495 377.200,372.242 377.548,372.014 377.974 M320.705 389.083 C 321.202 389.179,321.922 389.175,322.305 389.075 C 322.687 388.975,322.280 388.896,321.400 388.901 C 320.520 388.905,320.207 388.987,320.705 389.083 M238.180 389.553 C 237.349 390.385,238.370 390.606,239.424 389.823 C 240.176 389.264,240.172 389.248,239.280 389.310 C 238.774 389.345,238.279 389.454,238.180 389.553 M217.315 390.696 C 218.588 390.776,220.568 390.775,221.715 390.694 C 222.862 390.614,221.820 390.549,219.400 390.550 C 216.980 390.551,216.042 390.616,217.315 390.696 M229.505 390.683 C 230.002 390.779,230.722 390.775,231.105 390.675 C 231.487 390.575,231.080 390.496,230.200 390.501 C 229.320 390.505,229.007 390.587,229.505 390.683 " stroke="none" fill="#55ccfc" fill-rule="evenodd"></path><path id="path3" d="M203.200 61.967 C 200.136 62.670,197.779 64.064,195.400 66.578 C 193.120 68.988,192.371 69.433,180.400 75.496 C 147.538 92.141,135.152 105.654,144.414 114.756 C 148.482 118.754,158.255 120.283,163.800 117.790 C 164.460 117.493,165.649 116.989,166.442 116.670 C 167.234 116.351,169.304 115.146,171.042 113.992 C 172.779 112.838,175.910 110.987,178.000 109.879 C 180.090 108.770,182.250 107.570,182.800 107.212 C 186.485 104.812,186.925 105.407,186.195 111.800 C 185.060 121.739,183.679 141.385,183.187 154.600 C 182.958 160.760,182.599 169.760,182.391 174.600 C 181.901 185.940,181.901 208.605,182.390 219.600 C 182.601 224.330,182.959 232.880,183.187 238.600 C 183.604 249.080,184.326 259.375,185.444 270.800 C 186.956 286.241,187.225 288.710,187.577 290.400 C 188.348 294.098,188.478 297.837,187.853 298.356 C 187.032 299.037,172.439 298.277,170.200 297.436 C 169.320 297.106,168.265 296.827,167.855 296.818 C 167.445 296.808,165.555 296.422,163.655 295.959 C 151.790 293.071,145.693 301.757,151.392 313.428 C 155.584 322.013,160.609 324.319,181.000 327.013 C 183.640 327.362,187.240 327.851,189.000 328.099 C 193.150 328.685,217.318 328.682,220.800 328.096 C 222.230 327.855,225.290 327.378,227.600 327.036 C 251.021 323.564,257.194 319.923,259.060 308.482 C 260.713 298.350,253.954 294.164,241.061 297.333 C 238.639 297.929,235.367 298.191,220.490 298.983 C 215.918 299.226,215.028 298.705,215.625 296.134 C 216.161 293.824,216.071 286.433,215.417 279.122 C 212.451 245.961,212.017 187.048,214.410 142.400 C 214.820 134.737,215.096 130.144,216.594 106.000 C 216.915 100.830,217.360 95.340,217.583 93.800 C 219.721 79.033,218.968 68.691,215.480 64.893 C 213.366 62.591,207.044 61.085,203.200 61.967 M212.000 63.695 C 217.416 66.010,219.605 75.821,217.246 87.200 C 217.041 88.190,216.663 92.690,216.407 97.200 C 216.152 101.710,215.780 106.570,215.581 108.000 C 215.383 109.430,215.030 114.740,214.796 119.800 C 214.563 124.860,214.196 130.890,213.981 133.200 C 213.766 135.510,213.410 143.790,213.189 151.600 C 212.968 159.410,212.570 169.130,212.304 173.200 C 211.649 183.228,211.641 234.021,212.293 242.400 C 212.559 245.810,212.963 253.554,213.192 259.609 C 213.421 265.664,213.784 271.694,214.000 273.009 C 214.596 276.642,215.086 290.137,214.769 294.200 C 214.297 300.261,214.514 300.438,221.800 299.952 C 234.517 299.104,241.983 298.371,243.556 297.815 C 246.373 296.822,252.622 296.992,254.442 298.112 C 257.692 300.113,258.206 301.230,258.154 306.184 C 258.081 313.046,255.673 317.304,249.844 320.872 C 247.314 322.420,242.934 323.639,236.554 324.570 C 234.548 324.863,232.298 325.298,231.554 325.538 C 230.809 325.777,228.220 326.167,225.800 326.404 C 223.380 326.642,220.680 327.053,219.800 327.318 C 217.526 328.003,192.991 327.986,190.070 327.298 C 188.898 327.021,185.748 326.607,183.070 326.376 C 180.391 326.145,177.300 325.707,176.200 325.402 C 175.100 325.096,172.580 324.725,170.600 324.576 C 168.620 324.427,166.820 324.166,166.600 323.997 C 166.380 323.828,165.165 323.460,163.900 323.181 C 162.635 322.901,161.600 322.541,161.600 322.380 C 161.600 322.219,160.918 321.814,160.084 321.480 C 157.583 320.480,152.011 314.829,151.998 313.280 C 151.996 313.126,151.705 312.460,151.351 311.800 C 150.638 310.471,150.130 304.167,150.554 301.907 C 151.176 298.591,155.974 295.536,159.653 296.113 C 164.234 296.830,167.514 297.522,168.274 297.931 C 169.328 298.497,174.536 299.043,182.460 299.416 L 188.321 299.693 188.951 298.730 C 189.428 298.003,189.496 297.431,189.229 296.384 C 189.035 295.623,188.760 293.290,188.618 291.200 C 188.477 289.110,188.114 286.140,187.813 284.600 C 187.511 283.060,187.154 280.090,187.019 278.000 C 186.884 275.910,186.508 271.770,186.183 268.800 C 185.549 262.997,184.618 250.727,183.907 238.800 C 183.341 229.296,183.352 164.900,183.922 154.400 C 184.549 142.853,185.498 129.098,186.200 121.400 C 187.611 105.936,187.613 105.898,187.150 105.340 C 186.488 104.542,184.939 104.683,183.484 105.674 C 181.082 107.309,180.202 107.828,177.600 109.147 C 174.010 110.965,170.510 113.088,169.599 113.999 C 166.418 117.180,153.980 119.230,150.044 117.222 C 149.157 116.770,148.200 116.395,147.916 116.389 C 147.139 116.373,144.299 113.604,143.290 111.877 C 140.803 107.622,143.657 100.670,149.960 95.632 C 151.358 94.514,152.614 93.599,152.751 93.598 C 152.888 93.597,153.646 93.012,154.436 92.298 C 155.226 91.584,156.396 90.625,157.036 90.166 C 159.797 88.189,166.075 83.977,167.245 83.318 C 167.946 82.923,169.707 81.927,171.159 81.105 C 172.612 80.282,174.430 79.333,175.200 78.995 C 175.970 78.657,176.870 78.205,177.200 77.989 C 177.530 77.774,178.250 77.419,178.800 77.199 C 179.350 76.980,180.070 76.631,180.400 76.423 C 180.730 76.216,182.170 75.489,183.600 74.807 C 185.030 74.126,186.470 73.406,186.800 73.207 C 187.901 72.544,192.346 70.400,192.619 70.400 C 192.767 70.400,194.271 68.988,195.962 67.263 C 200.174 62.965,206.830 61.485,212.000 63.695 " stroke="none" fill="#9be0fc" fill-rule="evenodd"></path><path id="path4" d="M298.000 6.345 C 298.000 6.534,297.505 6.610,296.900 6.513 C 296.120 6.389,295.959 6.449,296.345 6.720 C 296.806 7.044,296.806 7.137,296.345 7.320 C 296.045 7.439,297.375 7.551,299.300 7.568 C 301.485 7.588,302.800 7.443,302.800 7.182 C 302.800 6.953,303.025 6.794,303.300 6.830 C 305.261 7.084,306.459 6.671,304.600 6.382 C 301.831 5.950,298.000 5.929,298.000 6.345 M308.400 6.600 C 308.982 7.301,311.239 7.401,311.887 6.753 C 312.180 6.460,313.784 6.360,316.567 6.464 C 318.895 6.550,320.800 6.481,320.800 6.310 C 320.800 6.140,317.898 6.000,314.351 6.000 C 308.664 6.000,307.961 6.071,308.400 6.600 M324.500 6.291 C 325.325 6.378,326.675 6.378,327.500 6.291 C 328.325 6.205,327.650 6.134,326.000 6.134 C 324.350 6.134,323.675 6.205,324.500 6.291 M352.695 6.255 C 352.538 6.505,352.661 6.918,352.969 7.174 C 353.395 7.528,353.600 7.524,353.826 7.158 C 354.007 6.865,353.955 6.781,353.692 6.943 C 353.455 7.090,353.198 6.893,353.121 6.505 C 353.030 6.044,352.882 5.957,352.695 6.255 M93.200 7.987 C 93.200 8.201,92.959 8.282,92.664 8.169 C 92.369 8.056,91.928 8.204,91.684 8.498 C 91.333 8.922,91.486 9.052,92.420 9.123 C 93.069 9.172,93.600 9.019,93.600 8.783 C 93.600 8.546,93.768 8.456,93.972 8.583 C 94.177 8.709,94.446 8.649,94.570 8.448 C 94.694 8.248,94.512 7.975,94.165 7.842 C 93.317 7.517,93.200 7.534,93.200 7.987 M96.800 7.931 C 96.800 8.113,97.319 8.185,97.954 8.092 C 98.589 7.999,99.471 8.117,99.914 8.354 C 100.543 8.690,100.770 8.655,100.947 8.193 C 101.131 7.714,100.755 7.600,98.987 7.600 C 97.784 7.600,96.800 7.749,96.800 7.931 M104.700 7.882 C 105.195 7.978,106.005 7.978,106.500 7.882 C 106.995 7.787,106.590 7.709,105.600 7.709 C 104.610 7.709,104.205 7.787,104.700 7.882 M112.900 7.876 C 113.285 7.976,113.915 7.976,114.300 7.876 C 114.685 7.775,114.370 7.693,113.600 7.693 C 112.830 7.693,112.515 7.775,112.900 7.876 M369.200 11.535 C 369.200 12.037,369.365 12.345,369.566 12.221 C 369.767 12.097,370.012 12.221,370.111 12.498 C 370.210 12.774,370.440 12.860,370.623 12.689 C 370.806 12.518,370.561 11.983,370.078 11.500 L 369.200 10.622 369.200 11.535 M34.469 15.064 C 34.638 15.939,35.800 16.063,35.800 15.205 C 35.800 14.878,35.469 14.547,35.064 14.469 C 34.529 14.366,34.366 14.529,34.469 15.064 M27.396 19.607 C 27.258 19.830,26.949 19.892,26.711 19.745 C 26.451 19.585,26.391 19.663,26.562 19.938 C 26.719 20.192,26.646 20.400,26.400 20.400 C 26.154 20.400,26.082 20.609,26.240 20.865 C 26.440 21.188,26.726 21.085,27.178 20.527 C 27.535 20.085,28.092 19.620,28.414 19.494 C 28.880 19.310,28.861 19.257,28.324 19.232 C 27.952 19.214,27.534 19.383,27.396 19.607 M380.800 20.877 C 380.800 20.987,381.160 21.493,381.600 22.000 C 382.040 22.507,382.400 22.743,382.400 22.523 C 382.400 22.304,382.040 21.798,381.600 21.400 C 381.160 21.002,380.800 20.766,380.800 20.877 M22.959 23.267 C 22.845 23.450,22.860 23.600,22.990 23.600 C 23.121 23.600,23.023 24.005,22.773 24.500 C 22.375 25.285,22.450 25.261,23.358 24.317 C 23.931 23.722,24.400 23.167,24.400 23.084 C 24.400 22.784,23.160 22.942,22.959 23.267 M386.596 32.054 C 387.033 32.574,387.442 33.079,387.505 33.176 C 387.567 33.272,387.551 32.912,387.470 32.376 C 387.383 31.808,387.003 31.339,386.561 31.254 C 385.827 31.112,385.829 31.141,386.596 32.054 M18.605 32.098 C 18.446 32.481,18.155 32.696,17.958 32.574 C 17.761 32.452,17.600 32.543,17.600 32.776 C 17.600 33.287,18.008 33.310,18.749 32.840 C 19.051 32.649,19.207 32.247,19.095 31.946 C 18.942 31.531,18.824 31.567,18.605 32.098 M16.370 36.167 C 16.354 36.185,16.260 36.636,16.162 37.169 C 15.988 38.118,16.001 38.123,16.792 37.407 C 17.753 36.538,17.819 36.133,17.000 36.133 C 16.670 36.133,16.387 36.148,16.370 36.167 M14.134 56.400 C 14.134 58.050,14.205 58.725,14.291 57.900 C 14.378 57.075,14.378 55.725,14.291 54.900 C 14.205 54.075,14.134 54.750,14.134 56.400 M14.151 89.600 C 14.151 92.130,14.216 93.165,14.296 91.900 C 14.375 90.635,14.375 88.565,14.296 87.300 C 14.216 86.035,14.151 87.070,14.151 89.600 M14.501 103.000 C 14.505 103.880,14.587 104.193,14.683 103.695 C 14.779 103.198,14.775 102.478,14.675 102.095 C 14.575 101.713,14.496 102.120,14.501 103.000 M14.667 110.267 C 14.299 110.634,14.406 117.170,14.800 118.400 C 14.976 118.950,15.141 119.130,15.166 118.800 C 15.207 118.267,15.255 118.267,15.600 118.800 C 16.055 119.504,16.156 116.025,15.727 114.421 C 15.484 113.510,15.443 113.496,15.140 114.221 C 14.934 114.713,14.848 114.079,14.907 112.499 C 14.958 111.124,14.985 109.999,14.967 109.999 C 14.948 110.000,14.813 110.120,14.667 110.267 M388.878 145.250 C 388.835 146.708,388.711 148.508,388.601 149.250 L 388.403 150.600 388.819 149.276 C 389.048 148.547,389.173 146.747,389.096 145.276 L 388.957 142.600 388.878 145.250 M388.928 156.800 C 388.928 158.230,389.001 158.815,389.089 158.100 C 389.178 157.385,389.178 156.215,389.089 155.500 C 389.001 154.785,388.928 155.370,388.928 156.800 M388.300 160.432 C 387.774 160.739,387.616 161.306,387.663 162.720 L 387.726 164.600 388.000 162.600 L 388.274 160.600 388.337 162.700 C 388.372 163.855,388.247 164.800,388.061 164.800 C 387.874 164.800,387.684 166.091,387.638 167.668 C 387.562 170.254,387.617 170.484,388.192 170.007 C 388.596 169.672,388.822 168.874,388.807 167.838 C 388.794 166.937,388.901 164.805,389.045 163.100 C 389.188 161.395,389.237 160.005,389.153 160.012 C 389.069 160.019,388.685 160.208,388.300 160.432 M387.379 282.800 C 387.379 289.950,387.433 292.875,387.499 289.300 C 387.566 285.725,387.566 279.875,387.499 276.300 C 387.433 272.725,387.379 275.650,387.379 282.800 M16.292 273.053 C 15.954 274.822,16.438 278.329,17.054 278.565 C 17.478 278.728,17.600 278.241,17.600 276.387 C 17.600 274.909,17.431 274.000,17.157 274.000 C 16.914 274.000,16.807 273.759,16.920 273.464 C 17.033 273.169,16.987 272.702,16.817 272.427 C 16.612 272.096,16.434 272.309,16.292 273.053 M19.432 352.200 C 19.544 352.860,19.618 354.181,19.597 355.136 C 19.575 356.159,19.718 356.774,19.946 356.634 C 20.158 356.502,20.423 356.621,20.534 356.898 C 20.646 357.174,20.751 356.464,20.768 355.320 C 20.789 353.938,20.614 353.132,20.245 352.920 C 19.939 352.744,19.586 352.240,19.459 351.800 C 19.332 351.360,19.320 351.540,19.432 352.200 M365.058 358.032 C 363.989 358.465,362.279 359.399,361.258 360.107 C 352.717 366.022,339.176 367.671,293.400 368.374 C 169.232 370.278,93.828 370.860,83.400 369.993 C 71.362 368.992,62.040 367.240,52.400 364.167 C 36.011 358.943,33.178 359.700,37.427 368.172 C 42.261 377.812,54.076 383.610,71.200 384.747 C 76.180 385.078,116.276 384.819,183.600 384.022 C 203.070 383.792,242.220 383.416,270.600 383.186 C 326.221 382.737,330.025 382.595,340.200 380.577 C 341.740 380.271,344.080 379.727,345.400 379.368 C 346.720 379.008,348.513 378.544,349.384 378.336 C 350.256 378.128,351.156 377.811,351.384 377.631 C 351.613 377.451,352.520 377.076,353.400 376.797 C 358.004 375.336,364.407 371.320,367.195 368.144 C 372.525 362.075,371.148 355.561,365.058 358.032 M21.043 360.231 C 20.911 360.576,21.013 361.250,21.269 361.729 C 21.525 362.208,21.705 362.645,21.668 362.700 C 21.394 363.105,21.711 363.600,22.243 363.600 C 23.066 363.600,22.669 361.715,21.673 360.895 C 21.303 360.590,21.225 360.455,21.500 360.594 C 22.065 360.880,22.196 360.168,21.642 359.826 C 21.445 359.704,21.176 359.887,21.043 360.231 M38.224 384.630 C 38.651 384.976,38.747 385.128,38.438 384.968 C 38.069 384.776,37.974 384.835,38.162 385.138 C 38.613 385.868,39.200 385.677,39.200 384.800 C 39.200 384.243,38.933 384.000,38.324 384.000 C 37.464 384.000,37.462 384.012,38.224 384.630 M360.563 384.949 C 360.179 385.777,360.217 385.868,360.876 385.696 C 361.963 385.412,362.662 383.999,361.714 384.003 C 361.321 384.005,360.803 384.431,360.563 384.949 M355.478 386.256 C 355.337 386.396,355.313 386.659,355.424 386.838 C 355.673 387.242,356.800 386.848,356.800 386.357 C 356.800 385.947,355.859 385.875,355.478 386.256 M42.200 387.200 C 42.336 387.420,42.842 387.587,43.324 387.572 C 44.169 387.545,44.171 387.531,43.400 387.200 C 42.299 386.727,41.908 386.727,42.200 387.200 M327.153 387.900 C 327.127 388.065,327.139 388.380,327.181 388.600 C 327.223 388.820,327.028 388.775,326.749 388.500 C 326.469 388.225,326.051 388.003,325.820 388.006 C 325.589 388.009,325.670 388.187,326.000 388.400 C 326.853 388.951,324.606 388.938,323.574 388.386 C 322.968 388.062,322.800 388.103,322.800 388.576 C 322.800 389.267,329.000 389.448,329.419 388.769 C 329.545 388.566,329.176 388.400,328.600 388.400 C 328.004 388.400,327.659 388.228,327.800 388.000 C 327.936 387.780,327.857 387.600,327.624 387.600 C 327.391 387.600,327.179 387.735,327.153 387.900 M330.812 387.984 C 330.488 388.189,330.363 388.496,330.533 388.667 C 330.704 388.837,330.992 388.737,331.173 388.443 C 331.447 388.000,331.540 388.002,331.720 388.455 C 331.871 388.835,331.946 388.788,331.968 388.300 C 332.004 387.519,331.685 387.432,330.812 387.984 M303.500 389.082 C 303.995 389.178,304.805 389.178,305.300 389.082 C 305.795 388.987,305.390 388.909,304.400 388.909 C 303.410 388.909,303.005 388.987,303.500 389.082 M315.700 389.091 C 316.525 389.178,317.875 389.178,318.700 389.091 C 319.525 389.005,318.850 388.934,317.200 388.934 C 315.550 388.934,314.875 389.005,315.700 389.091 M50.249 390.054 C 50.620 390.464,51.211 390.797,51.562 390.794 C 52.065 390.789,52.087 390.716,51.666 390.449 C 51.372 390.263,51.149 389.951,51.171 389.755 C 51.193 389.560,50.842 389.379,50.392 389.354 C 49.619 389.310,49.611 389.349,50.249 390.054 M233.600 389.777 C 233.600 390.266,234.075 390.400,235.800 390.400 C 237.082 390.400,238.000 390.223,238.000 389.976 C 238.000 389.743,238.168 389.656,238.372 389.783 C 238.577 389.909,238.833 389.871,238.940 389.697 C 239.048 389.523,237.890 389.330,236.368 389.267 C 234.080 389.173,233.600 389.262,233.600 389.777 M231.386 390.019 C 230.684 390.277,230.720 390.340,231.719 390.602 C 233.005 390.940,233.325 390.789,232.646 390.165 C 232.384 389.924,231.820 389.859,231.386 390.019 M205.200 390.400 C 201.919 390.613,202.356 390.656,208.400 390.717 C 213.041 390.764,215.198 390.657,214.800 390.400 C 214.168 389.992,211.486 389.992,205.200 390.400 M224.691 390.689 C 225.401 390.777,226.661 390.779,227.491 390.692 C 228.321 390.605,227.740 390.533,226.200 390.531 C 224.660 390.529,223.981 390.600,224.691 390.689 " stroke="none" fill="#0c8ce4" fill-rule="evenodd"></path></g></svg>